<svg width="1768" height="1572" viewBox="0 0 1768 1572" fill="none" xmlns="http://www.w3.org/2000/svg">
<g filter="url(#filter0_d_1402_883)">
<g clip-path="url(#paint0_diamond_1402_883_clip_path)" data-figma-skip-parse="true"><g transform="matrix(1.578 -4.5211e-08 2.24877e-08 2.07191 95.5 884.273)"><rect x="0" y="0" width="1055.77" height="312.272" fill="url(#paint0_diamond_1402_883)" opacity="1" shape-rendering="crispEdges"/><rect x="0" y="0" width="1055.77" height="312.272" transform="scale(1 -1)" fill="url(#paint0_diamond_1402_883)" opacity="1" shape-rendering="crispEdges"/><rect x="0" y="0" width="1055.77" height="312.272" transform="scale(-1 1)" fill="url(#paint0_diamond_1402_883)" opacity="1" shape-rendering="crispEdges"/><rect x="0" y="0" width="1055.77" height="312.272" transform="scale(-1)" fill="url(#paint0_diamond_1402_883)" opacity="1" shape-rendering="crispEdges"/></g></g><path d="M556.006 884.398L95 861.273L574.561 817.856C577.712 817.571 579.288 817.428 580.679 818.023C582.071 818.618 583.057 819.856 585.029 822.331L613.436 857.991C619.813 865.996 623.001 869.998 626.593 869.276C630.186 868.554 631.58 863.63 634.368 853.783L709.21 589.447C714.32 571.4 716.874 562.377 721.532 562.497C726.19 562.616 728.278 571.759 732.455 590.044L794.534 861.82L794.534 861.821C799.754 884.673 802.364 896.1 807.288 895.958C812.213 895.817 814.164 884.26 818.065 861.146L905.777 341.531L905.777 341.53C911.097 310.016 913.757 294.259 918.971 294.403C924.185 294.548 925.969 310.428 929.535 342.189L1007.25 1034.29C1010.38 1062.17 1011.94 1076.11 1017.04 1076.36C1022.14 1076.61 1025.06 1062.89 1030.91 1035.46L1121.53 610.197C1125.33 592.376 1127.23 583.466 1131.85 583.243C1136.46 583.019 1139.21 591.705 1144.71 609.076L1222.88 855.971C1226.74 868.16 1228.67 874.255 1232.73 874.546C1236.79 874.836 1239.57 869.079 1245.13 857.563L1284.66 775.632L1284.66 775.631C1288.79 767.064 1290.86 762.781 1294.38 762.571C1297.89 762.361 1300.45 766.368 1305.58 774.382L1329.8 812.271C1331.37 814.727 1332.16 815.954 1333.36 816.679C1334.56 817.403 1336.01 817.524 1338.92 817.766L1592.16 838.844C1645.62 843.293 1672.35 845.518 1672.33 851.057C1672.31 856.595 1645.57 858.653 1592.08 862.767L1312.24 884.293C1309.18 884.529 1307.65 884.646 1306.41 885.425C1305.16 886.203 1304.38 887.525 1302.82 890.168L1223.59 1024.69C1217.75 1034.62 1214.82 1039.58 1210.96 1039.15C1207.1 1038.72 1205.34 1033.24 1201.83 1022.27L1145.78 847.392C1139.9 829.039 1136.96 819.862 1132.27 820.178C1127.59 820.493 1125.91 829.981 1122.54 848.956L1122.54 848.958L1019.2 1431.27C1013.86 1461.34 1011.19 1476.37 1006.02 1476.22C1000.84 1476.07 999.048 1460.91 995.465 1430.59L916.903 765.802C913.025 732.988 911.086 716.581 905.844 716.493C900.603 716.404 898.11 732.736 893.123 765.399L827.306 1196.54C823.535 1221.24 821.649 1233.59 816.658 1233.75C811.667 1233.9 809.017 1221.7 803.716 1197.28L803.716 1197.28L722.065 821.14C718.049 802.641 716.042 793.392 711.373 793.233C706.704 793.074 704.073 802.166 698.811 820.349L698.811 820.35L642.359 1015.43C638.456 1028.92 636.504 1035.67 632.28 1035.92C628.057 1036.18 625.302 1029.72 619.794 1016.8L566.443 891.676C565.012 888.319 564.296 886.641 562.884 885.656C561.472 884.672 559.65 884.58 556.006 884.398Z" data-figma-gradient-fill="{&#34;type&#34;:&#34;GRADIENT_DIAMOND&#34;,&#34;stops&#34;:[{&#34;color&#34;:{&#34;r&#34;:0.67450982332229614,&#34;g&#34;:0.43529412150382996,&#34;b&#34;:0.42352941632270813,&#34;a&#34;:1.0},&#34;position&#34;:0.0},{&#34;color&#34;:{&#34;r&#34;:0.92156863212585449,&#34;g&#34;:0.23921568691730499,&#34;b&#34;:0.23529411852359772,&#34;a&#34;:1.0},&#34;position&#34;:0.31730768084526062},{&#34;color&#34;:{&#34;r&#34;:0.93269228935241699,&#34;g&#34;:0.16583473980426788,&#34;b&#34;:0.16142751276493073,&#34;a&#34;:1.0},&#34;position&#34;:0.53775316476821899},{&#34;color&#34;:{&#34;r&#34;:0.92156863212585449,&#34;g&#34;:0.23921568691730499,&#34;b&#34;:0.23529411852359772,&#34;a&#34;:1.0},&#34;position&#34;:0.76442307233810425},{&#34;color&#34;:{&#34;r&#34;:0.67450982332229614,&#34;g&#34;:0.43529412150382996,&#34;b&#34;:0.42352941632270813,&#34;a&#34;:1.0},&#34;position&#34;:1.0}],&#34;stopsVar&#34;:[{&#34;color&#34;:{&#34;r&#34;:0.67450982332229614,&#34;g&#34;:0.43529412150382996,&#34;b&#34;:0.42352941632270813,&#34;a&#34;:1.0},&#34;position&#34;:0.0},{&#34;color&#34;:{&#34;r&#34;:0.92156863212585449,&#34;g&#34;:0.23921568691730499,&#34;b&#34;:0.23529411852359772,&#34;a&#34;:1.0},&#34;position&#34;:0.31730768084526062},{&#34;color&#34;:{&#34;r&#34;:0.93269228935241699,&#34;g&#34;:0.16583473980426788,&#34;b&#34;:0.16142751276493073,&#34;a&#34;:1.0},&#34;position&#34;:0.53775316476821899},{&#34;color&#34;:{&#34;r&#34;:0.92156863212585449,&#34;g&#34;:0.23921568691730499,&#34;b&#34;:0.23529411852359772,&#34;a&#34;:1.0},&#34;position&#34;:0.76442307233810425},{&#34;color&#34;:{&#34;r&#34;:0.67450982332229614,&#34;g&#34;:0.43529412150382996,&#34;b&#34;:0.42352941632270813,&#34;a&#34;:1.0},&#34;position&#34;:1.0}],&#34;transform&#34;:{&#34;m00&#34;:3156.0,&#34;m01&#34;:4.4975440687267110e-05,&#34;m02&#34;:-1482.50,&#34;m10&#34;:-9.0422086941543967e-05,&#34;m11&#34;:4143.822753906250,&#34;m12&#34;:-1187.6379394531250},&#34;opacity&#34;:1.0,&#34;blendMode&#34;:&#34;NORMAL&#34;,&#34;visible&#34;:true}"/>
</g>
<path d="M482 924.273C484.574 924.273 487.41 924.254 489.783 924.573C492.415 924.927 495.777 925.838 498.606 928.667C501.436 931.496 502.346 934.858 502.7 937.49C503.019 939.863 503 942.699 503 945.273V969.551C503 970.69 503.07 972.878 502.486 975.053C501.902 977.227 500.745 979.086 500.174 980.072L424.217 1111.27C423.207 1113.01 422.368 1114.47 421.661 1115.74C423.119 1115.77 424.798 1115.77 426.813 1115.77H643.5C646.074 1115.77 648.91 1115.75 651.283 1116.07C653.833 1116.42 657.068 1117.28 659.84 1119.91L660.106 1120.17L660.366 1120.43C662.992 1123.21 663.857 1126.44 664.2 1128.99C664.519 1131.36 664.5 1134.2 664.5 1136.77V1304.77C664.5 1307.35 664.519 1310.18 664.2 1312.56C663.846 1315.19 662.936 1318.55 660.106 1321.38C657.277 1324.21 653.915 1325.12 651.283 1325.47C648.91 1325.79 646.074 1325.77 643.5 1325.77H104.5C101.926 1325.77 99.0898 1325.79 96.7168 1325.47C94.085 1325.12 90.723 1324.21 87.8936 1321.38C85.0641 1318.55 84.1537 1315.19 83.7998 1312.56C83.4808 1310.18 83.5 1307.35 83.5 1304.77V1289.42C83.5 1288.3 83.4327 1286.17 83.9893 1284.04L84.0996 1283.65C84.6815 1281.69 85.6843 1280.03 86.1953 1279.12L279.715 934.98C280.467 933.643 281.342 932.065 282.253 930.766C283.279 929.303 284.726 927.619 286.937 926.326L287.35 926.094C289.416 924.98 291.434 924.586 293.101 924.42C294.68 924.263 296.485 924.273 298.02 924.273H482Z" fill="white" stroke="black" stroke-width="18" stroke-linejoin="bevel"/>
<path d="M1352 924.273C1349.43 924.273 1346.59 924.254 1344.22 924.573C1341.58 924.927 1338.22 925.838 1335.39 928.667C1332.56 931.496 1331.65 934.858 1331.3 937.49C1330.98 939.863 1331 942.699 1331 945.273V969.551C1331 970.69 1330.93 972.878 1331.51 975.053C1332.1 977.227 1333.26 979.086 1333.83 980.072L1409.78 1111.27C1410.79 1113.01 1411.63 1114.47 1412.34 1115.74C1410.88 1115.77 1409.2 1115.77 1407.19 1115.77H1190.5C1187.93 1115.77 1185.09 1115.75 1182.72 1116.07C1180.17 1116.42 1176.93 1117.28 1174.16 1119.91L1173.89 1120.17L1173.63 1120.43C1171.01 1123.21 1170.14 1126.44 1169.8 1128.99C1169.48 1131.36 1169.5 1134.2 1169.5 1136.77V1304.77C1169.5 1307.35 1169.48 1310.18 1169.8 1312.56C1170.15 1315.19 1171.06 1318.55 1173.89 1321.38C1176.72 1324.21 1180.08 1325.12 1182.72 1325.47C1185.09 1325.79 1187.93 1325.77 1190.5 1325.77H1729.5C1732.07 1325.77 1734.91 1325.79 1737.28 1325.47C1739.92 1325.12 1743.28 1324.21 1746.11 1321.38C1748.94 1318.55 1749.85 1315.19 1750.2 1312.56C1750.52 1310.18 1750.5 1307.35 1750.5 1304.77V1289.42C1750.5 1288.3 1750.57 1286.17 1750.01 1284.04L1749.9 1283.65C1749.32 1281.69 1748.32 1280.03 1747.8 1279.12L1554.29 934.98C1553.53 933.643 1552.66 932.065 1551.75 930.766C1550.72 929.303 1549.27 927.619 1547.06 926.326L1546.65 926.094C1544.58 924.98 1542.57 924.586 1540.9 924.42C1539.32 924.263 1537.52 924.273 1535.98 924.273H1352Z" fill="white" stroke="black" stroke-width="18" stroke-linejoin="bevel"/>
<path d="M598 775.273H360.5L766 5.27344H1094L1498 777.273H1352C1323.78 724.464 1311.03 695.921 1290.5 645.773C1275.75 709.201 1265.06 731.292 1242.5 751.773C1189.75 588.669 1162.61 496.403 1131 326.273C1117.4 398.491 1109.49 438.584 1081 489.773L1000 362.273L920.5 66.2734L853 362.273L765 509.273C749.619 460.035 737.578 409.318 726 326.273C678.661 503.064 651.614 612.503 598 775.273Z" fill="white"/>
<path d="M360.5 765.273C360.5 771.94 360.5 778.607 360.5 785.273C439.667 785.173 518.833 785.072 598 784.971L607.211 778.307C608.082 775.652 608.946 773.01 609.804 770.382C657.906 624.881 695.47 476.288 734.794 328.628L716.983 327.531C725.662 389.6 737.335 451.841 756.537 511.917L772.607 513.827C801.878 464.79 831.149 415.753 860.42 366.716L861.432 364.196C883.806 265.501 906.181 166.806 928.555 68.1104L912.521 68.4166C939.165 167.12 965.753 265.612 992.397 364.315L993.355 366.495C1020.41 408.961 1047.46 451.426 1074.52 493.892L1087.71 493.509C1117.43 442.482 1127.88 383.552 1138.33 327.654L1123.66 327.636C1149.38 472.53 1189.7 614.572 1235.93 753.897L1247.14 756.884C1279.98 728.342 1287.52 684.954 1297.08 647.303L1284.25 648.332C1302.37 693.281 1323.01 737.743 1346.21 780.368L1352 783.84C1400.67 783.779 1449.33 783.717 1498 783.655L1503.65 774.315C1368.66 517.153 1233.67 259.99 1098.67 2.8283L1094 -7.9155e-05C984.667 0.138933 875.333 0.277946 766 0.416958L761.703 3.01051C664.945 187.311 568.187 371.611 471.43 555.912C433.347 628.45 395.265 700.988 357.182 773.526C359.394 774.691 361.606 775.856 363.818 777.021C402.085 704.58 440.352 632.139 478.619 559.697C575.845 375.644 673.071 191.59 770.297 7.53636L766 10.1299C875.333 10.2689 984.667 10.4079 1094 10.547L1089.33 7.71858C1223.67 265.223 1358.01 522.728 1492.35 780.232L1498 770.892C1449.33 770.83 1400.67 770.768 1352 770.706L1357.79 774.179C1334.79 731.638 1314.74 688.155 1296.75 643.215L1283.92 644.244C1274.43 681.928 1266.62 722.276 1237.86 746.663L1249.07 749.649C1203.19 610.149 1163.63 469.446 1138.34 324.91L1123.67 324.893C1113 381.176 1102.84 437.314 1074.29 486.038L1087.48 485.655C1060.54 443.121 1033.59 400.586 1006.65 358.052L1007.6 360.231C981.21 261.461 954.873 162.901 928.479 64.1303L912.445 64.4365C889.819 163.075 867.194 261.713 844.568 360.351L845.58 357.831C816.184 406.794 786.788 455.757 757.393 504.719L773.463 506.63C754.768 447.609 743.486 386.676 735.017 325.016L717.206 323.919C677.446 471.71 639.654 619.603 591.391 764.35C590.531 766.966 589.663 769.596 588.789 772.239L598 765.575C518.833 765.475 439.667 765.374 360.5 765.273ZM360.5 785.273V765.273L363.818 777.021L357.182 773.526L360.5 785.273Z" fill="black"/>
<defs>
<filter id="filter0_d_1402_883" x="0" y="199.402" width="1767.33" height="1371.82" filterUnits="userSpaceOnUse" color-interpolation-filters="sRGB">
<feFlood flood-opacity="0" result="BackgroundImageFix"/>
<feColorMatrix in="SourceAlpha" type="matrix" values="0 0 0 0 0 0 0 0 0 0 0 0 0 0 0 0 0 0 127 0" result="hardAlpha"/>
<feMorphology radius="40" operator="dilate" in="SourceAlpha" result="effect1_dropShadow_1402_883"/>
<feOffset/>
<feGaussianBlur stdDeviation="27.5"/>
<feComposite in2="hardAlpha" operator="out"/>
<feColorMatrix type="matrix" values="0 0 0 0 0.942308 0 0 0 0 0.126849 0 0 0 0 0.126849 0 0 0 1 0"/>
<feBlend mode="normal" in2="BackgroundImageFix" result="effect1_dropShadow_1402_883"/>
<feBlend mode="normal" in="SourceGraphic" in2="effect1_dropShadow_1402_883" result="shape"/>
</filter>
<clipPath id="paint0_diamond_1402_883_clip_path"><path d="M556.006 884.398L95 861.273L574.561 817.856C577.712 817.571 579.288 817.428 580.679 818.023C582.071 818.618 583.057 819.856 585.029 822.331L613.436 857.991C619.813 865.996 623.001 869.998 626.593 869.276C630.186 868.554 631.58 863.63 634.368 853.783L709.21 589.447C714.32 571.4 716.874 562.377 721.532 562.497C726.19 562.616 728.278 571.759 732.455 590.044L794.534 861.82L794.534 861.821C799.754 884.673 802.364 896.1 807.288 895.958C812.213 895.817 814.164 884.26 818.065 861.146L905.777 341.531L905.777 341.53C911.097 310.016 913.757 294.259 918.971 294.403C924.185 294.548 925.969 310.428 929.535 342.189L1007.25 1034.29C1010.38 1062.17 1011.94 1076.11 1017.04 1076.36C1022.14 1076.61 1025.06 1062.89 1030.91 1035.46L1121.53 610.197C1125.33 592.376 1127.23 583.466 1131.85 583.243C1136.46 583.019 1139.21 591.705 1144.71 609.076L1222.88 855.971C1226.74 868.16 1228.67 874.255 1232.73 874.546C1236.79 874.836 1239.57 869.079 1245.13 857.563L1284.66 775.632L1284.66 775.631C1288.79 767.064 1290.86 762.781 1294.38 762.571C1297.89 762.361 1300.45 766.368 1305.58 774.382L1329.8 812.271C1331.37 814.727 1332.16 815.954 1333.36 816.679C1334.56 817.403 1336.01 817.524 1338.92 817.766L1592.16 838.844C1645.62 843.293 1672.35 845.518 1672.33 851.057C1672.31 856.595 1645.57 858.653 1592.08 862.767L1312.24 884.293C1309.18 884.529 1307.65 884.646 1306.41 885.425C1305.16 886.203 1304.38 887.525 1302.82 890.168L1223.59 1024.69C1217.75 1034.62 1214.82 1039.58 1210.96 1039.15C1207.1 1038.72 1205.34 1033.24 1201.83 1022.27L1145.78 847.392C1139.9 829.039 1136.96 819.862 1132.27 820.178C1127.59 820.493 1125.91 829.981 1122.54 848.956L1122.54 848.958L1019.2 1431.27C1013.86 1461.34 1011.19 1476.37 1006.02 1476.22C1000.84 1476.07 999.048 1460.91 995.465 1430.59L916.903 765.802C913.025 732.988 911.086 716.581 905.844 716.493C900.603 716.404 898.11 732.736 893.123 765.399L827.306 1196.54C823.535 1221.24 821.649 1233.59 816.658 1233.75C811.667 1233.9 809.017 1221.7 803.716 1197.28L803.716 1197.28L722.065 821.14C718.049 802.641 716.042 793.392 711.373 793.233C706.704 793.074 704.073 802.166 698.811 820.349L698.811 820.35L642.359 1015.43C638.456 1028.92 636.504 1035.67 632.28 1035.92C628.057 1036.18 625.302 1029.72 619.794 1016.8L566.443 891.676C565.012 888.319 564.296 886.641 562.884 885.656C561.472 884.672 559.65 884.58 556.006 884.398Z"/></clipPath><linearGradient id="paint0_diamond_1402_883" x1="0" y1="0" x2="500" y2="500" gradientUnits="userSpaceOnUse">
<stop stop-color="#AC6F6C"/>
<stop offset="0.317308" stop-color="#EB3D3C"/>
<stop offset="0.537753" stop-color="#EE2A29"/>
<stop offset="0.764423" stop-color="#EB3D3C"/>
<stop offset="1" stop-color="#AC6F6C"/>
</linearGradient>
</defs>
</svg>
