<svg width="1649" height="1506" viewBox="0 0 1649 1506" fill="none" xmlns="http://www.w3.org/2000/svg">
<path d="M463.506 879.124L2.5 856L482.061 812.583C485.212 812.298 486.788 812.155 488.179 812.75C489.571 813.345 490.557 814.582 492.529 817.057L520.936 852.717C527.313 860.722 530.501 864.725 534.093 864.003C537.686 863.28 539.08 858.357 541.868 848.509L616.71 584.173C621.82 566.127 624.374 557.104 629.032 557.223C633.69 557.343 635.778 566.485 639.955 584.77L702.034 856.547L702.034 856.548C707.254 879.4 709.864 890.826 714.788 890.685C719.713 890.544 721.664 878.987 725.565 855.872L813.277 336.257L813.277 336.257C818.597 304.742 821.257 288.985 826.471 289.13C831.685 289.274 833.469 305.155 837.035 336.915L914.749 1029.02C917.879 1056.9 919.444 1070.83 924.543 1071.08C929.641 1071.33 932.565 1057.62 938.411 1030.18L1029.03 604.923C1032.83 587.103 1034.73 578.193 1039.35 577.969C1043.96 577.746 1046.71 586.431 1052.21 603.802L1130.38 850.697C1134.24 862.887 1136.17 868.981 1140.23 869.272C1144.29 869.563 1147.07 863.805 1152.63 852.29L1192.16 770.358L1192.16 770.357C1196.29 761.79 1198.36 757.507 1201.88 757.297C1205.39 757.087 1207.95 761.094 1213.08 769.109L1237.3 806.998C1238.87 809.453 1239.66 810.681 1240.86 811.405C1242.06 812.13 1243.51 812.251 1246.42 812.492L1499.66 833.57C1553.12 838.02 1579.85 840.245 1579.83 845.783C1579.81 851.322 1553.07 853.379 1499.58 857.494L1219.74 879.02C1216.68 879.255 1215.15 879.373 1213.91 880.151C1212.66 880.93 1211.88 882.251 1210.32 884.895L1131.09 1019.42C1125.25 1029.35 1122.32 1034.31 1118.46 1033.88C1114.6 1033.45 1112.84 1027.96 1109.33 1016.99L1053.28 842.119C1047.4 823.766 1044.46 814.589 1039.77 814.904C1035.09 815.22 1033.41 824.708 1030.04 843.683L1030.04 843.685L926.697 1426C921.361 1456.07 918.694 1471.1 913.517 1470.95C908.34 1470.8 906.548 1455.64 902.965 1425.31L824.403 760.528C820.525 727.715 818.586 711.308 813.344 711.219C808.103 711.13 805.61 727.462 800.623 760.126L734.806 1191.27C731.035 1215.97 729.149 1228.32 724.158 1228.48C719.167 1228.63 716.517 1216.42 711.216 1192L711.216 1192L629.565 815.867C625.549 797.368 623.542 788.118 618.873 787.96C614.204 787.801 611.573 796.893 606.311 815.076L606.311 815.076L549.859 1010.16C545.956 1023.65 544.004 1030.39 539.78 1030.65C535.557 1030.91 532.802 1024.45 527.294 1011.53L473.943 886.402C472.512 883.046 471.796 881.368 470.384 880.383C468.972 879.398 467.15 879.307 463.506 879.124Z" fill="white"/>
<path d="M563 1299.5V1131.5C563 1125.84 563 1123.01 561.243 1121.26C559.485 1119.5 556.657 1119.5 551 1119.5H334.313C325.065 1119.5 320.44 1119.5 318.709 1116.5C316.977 1113.49 319.294 1109.49 323.928 1101.49L399.885 970.289L399.885 970.289C400.688 968.903 401.089 968.209 401.295 967.445C401.5 966.68 401.5 965.879 401.5 964.277V940C401.5 934.343 401.5 931.515 399.743 929.757C397.985 928 395.157 928 389.5 928H205.519C202.096 928 200.384 928 198.98 928.821C197.577 929.642 196.738 931.134 195.06 934.118L1.5403 1278.26C0.774408 1279.62 0.391461 1280.3 0.19573 1281.05C0 1281.8 0 1282.58 0 1284.14V1299.5C0 1305.16 0 1307.99 1.75736 1309.74C3.51472 1311.5 6.34314 1311.5 12 1311.5H551C556.657 1311.5 559.485 1311.5 561.243 1309.74C563 1307.99 563 1305.16 563 1299.5Z" fill="white"/>
<path d="M1086 1299.5V1131.5C1086 1125.84 1086 1123.01 1087.76 1121.26C1089.51 1119.5 1092.34 1119.5 1098 1119.5H1314.69C1323.94 1119.5 1328.56 1119.5 1330.29 1116.5C1332.02 1113.49 1329.71 1109.49 1325.07 1101.49L1249.11 970.289L1249.11 970.289C1248.31 968.903 1247.91 968.209 1247.71 967.445C1247.5 966.68 1247.5 965.879 1247.5 964.277V940C1247.5 934.343 1247.5 931.515 1249.26 929.757C1251.01 928 1253.84 928 1259.5 928H1443.48C1446.9 928 1448.62 928 1450.02 928.821C1451.42 929.642 1452.26 931.134 1453.94 934.118L1647.46 1278.26C1648.23 1279.62 1648.61 1280.3 1648.8 1281.05C1649 1281.8 1649 1282.58 1649 1284.14V1299.5C1649 1305.16 1649 1307.99 1647.24 1309.74C1645.49 1311.5 1642.66 1311.5 1637 1311.5H1098C1092.34 1311.5 1089.51 1311.5 1087.76 1309.74C1086 1307.99 1086 1305.16 1086 1299.5Z" fill="white"/>
<path d="M505.5 770H268L673.5 0H1001.5L1405.5 772H1259.5C1231.28 719.19 1218.53 690.647 1198 640.5C1183.25 703.927 1172.56 726.018 1150 746.5C1097.25 583.395 1070.11 491.13 1038.5 321C1024.9 393.218 1016.99 433.311 988.5 484.5L907.5 357L828 61L760.5 357L672.5 504C657.119 454.762 645.078 404.044 633.5 321C586.161 497.791 559.114 607.23 505.5 770Z" fill="white"/>
</svg>
