<svg width="1779" height="1642" viewBox="0 0 1779 1642" fill="none" xmlns="http://www.w3.org/2000/svg">
<path d="M335.246 1288.39H597.239V1501.89H30.0461C6.76784 1501.89 -7.64139 1476.53 4.27458 1456.54L233.18 1072.39H441.775L335.246 1288.39ZM1774.22 1456.54C1786.14 1476.53 1771.73 1501.89 1748.45 1501.89H1181.24V1288.39H1444.25C1444.25 1288.39 1393.32 1190.51 1329.4 1072.39H1545.31L1774.22 1456.54ZM863.476 14.6427C875.11 -4.88088 903.383 -4.88093 915.018 14.6427L1429.12 877.393H1317.25L1304.25 850.394L1303.84 849.757C1286.76 823.042 1278.22 809.685 1266.5 810.385C1254.78 811.085 1247.89 825.364 1234.11 853.922L1222.79 877.393H1221.48C1210.32 857.809 1199.36 838.817 1188.78 820.774L1142.99 690.123C1126.2 642.237 1117.81 618.293 1103.28 618.629C1090.01 618.936 1082.79 639.236 1070.55 679.784C1046.68 675.779 974.839 465.032 921.527 342.432C913.121 305.965 906.446 287.643 894.512 287.215C887.644 286.969 882.089 292.76 876.513 304.539L876.248 304.395L875.4 306.964C869.736 319.716 863.963 338.625 856.69 363.64L790.748 563.395C762.975 661.556 740.801 631.976 712.248 588.395L712.156 588.403C710.618 584.591 708.986 582.083 707.116 580.781C700.623 576.259 692.074 575.99 685.31 580.095C681.914 582.156 679.005 587.924 675.801 597.869L537.945 877.393H349.377L863.476 14.6427Z" fill="white"/>
<path d="M527.254 1014.52L66.248 991.395L545.809 947.978C548.96 947.692 550.536 947.55 551.928 948.144C553.319 948.739 554.305 949.977 556.277 952.452L584.684 988.112C591.061 996.117 594.249 1000.12 597.841 999.397C601.434 998.675 602.828 993.751 605.616 983.904L680.458 719.568C685.568 701.521 688.122 692.498 692.78 692.618C697.438 692.737 699.526 701.88 703.703 720.165L765.782 991.942L765.782 991.942C771.002 1014.79 773.612 1026.22 778.536 1026.08C783.461 1025.94 785.412 1014.38 789.313 991.267L877.025 471.652L877.025 471.651C882.345 440.137 885.005 424.38 890.219 424.524C895.433 424.669 897.217 440.549 900.783 472.31L978.497 1164.42C981.627 1192.29 983.192 1206.23 988.291 1206.48C993.39 1206.73 996.313 1193.01 1002.16 1165.58L1092.78 740.318C1096.58 722.497 1098.48 713.587 1103.09 713.364C1107.71 713.141 1110.46 721.826 1115.96 739.197L1194.13 986.092C1197.99 998.281 1199.92 1004.38 1203.98 1004.67C1208.04 1004.96 1210.82 999.2 1216.38 987.684L1255.91 905.753L1255.91 905.752C1260.04 897.185 1262.11 892.902 1265.62 892.692C1269.14 892.482 1271.7 896.489 1276.83 904.503L1301.05 942.392C1302.62 944.848 1303.4 946.076 1304.61 946.8C1305.81 947.524 1307.26 947.645 1310.16 947.887L1563.41 968.965C1616.87 973.414 1643.6 975.639 1643.58 981.178C1643.56 986.716 1616.82 988.774 1563.33 992.888L1283.49 1014.41C1280.43 1014.65 1278.9 1014.77 1277.65 1015.55C1276.41 1016.32 1275.63 1017.65 1274.07 1020.29L1194.84 1154.82C1188.99 1164.74 1186.07 1169.7 1182.21 1169.27C1178.35 1168.84 1176.59 1163.36 1173.07 1152.39L1117.03 977.514C1111.15 959.16 1108.21 949.983 1103.52 950.299C1098.84 950.614 1097.15 960.102 1093.79 979.077L1093.79 979.079L990.445 1561.4C985.109 1591.46 982.442 1606.49 977.265 1606.34C972.088 1606.19 970.296 1591.03 966.713 1560.71L888.151 895.923C884.273 863.109 882.334 846.702 877.093 846.614C871.851 846.525 869.358 862.857 864.371 895.52L798.554 1326.66C794.783 1351.36 792.897 1363.71 787.906 1363.87C782.915 1364.03 780.265 1351.82 774.964 1327.4L774.964 1327.4L693.313 951.261C689.297 932.762 687.29 923.513 682.621 923.354C677.952 923.195 675.321 932.287 670.059 950.47L670.059 950.471L613.607 1145.55C609.704 1159.04 607.752 1165.79 603.528 1166.04C599.305 1166.3 596.55 1159.84 591.042 1146.92L537.691 1021.8C536.26 1018.44 535.544 1016.76 534.132 1015.78C532.72 1014.79 530.898 1014.7 527.254 1014.52Z" fill="white"/>
</svg>
