<svg width="1787" height="1646" viewBox="0 0 1787 1646" fill="none" xmlns="http://www.w3.org/2000/svg">
<path d="M339.252 1292.39H601.245V1505.89H34.0518C10.7736 1505.89 -3.63567 1480.53 8.28027 1460.54L237.186 1076.39H445.78L339.252 1292.39ZM1778.23 1460.54C1790.14 1480.53 1775.73 1505.89 1752.45 1505.89H1185.25V1292.39H1448.25C1448.17 1292.24 1397.28 1194.42 1333.4 1076.39H1549.32L1778.23 1460.54ZM867.481 18.6426C879.116 -0.880936 907.389 -0.88088 919.023 18.6426L1433.12 881.393H1321.25L1308.25 854.395L1307.84 853.757C1290.76 827.042 1282.22 813.685 1270.51 814.385C1258.79 815.085 1251.9 829.364 1238.12 857.922L1226.79 881.393H1225.48C1214.32 861.809 1203.36 842.817 1192.79 824.773L1146.99 694.123C1130.21 646.237 1121.81 622.295 1107.29 622.63C1094.02 622.936 1086.8 643.236 1074.55 683.785C1050.68 679.774 978.844 469.035 925.533 346.436C917.127 309.967 910.452 291.643 898.518 291.215C891.649 290.969 886.094 296.76 880.519 308.539L880.254 308.395L879.4 310.977C873.741 323.725 867.971 342.622 860.703 367.617L794.754 567.395C766.981 665.555 744.807 635.976 716.254 592.395L716.162 592.403C714.624 588.592 712.992 586.083 711.123 584.781C704.63 580.259 696.081 579.99 689.316 584.095C685.92 586.156 683.011 591.924 679.807 601.869L541.951 881.393H353.383L867.481 18.6426Z" fill="white"/>
<path d="M339.252 1292.39L335.665 1290.62L339.252 1296.39V1292.39ZM601.245 1292.39H605.245L601.245 1288.39V1292.39ZM601.245 1505.89V1509.89L605.245 1505.89H601.245ZM34.0518 1505.89L34.0517 1509.89H34.0518V1505.89ZM8.28027 1460.54L4.84408 1458.49H4.84407L8.28027 1460.54ZM237.186 1076.39V1072.39L233.749 1074.34L237.186 1076.39ZM445.78 1076.39L449.368 1078.16L445.78 1072.39V1076.39ZM1778.23 1460.54L1781.66 1458.49L1781.66 1458.49L1778.23 1460.54ZM1752.45 1505.89V1509.89V1509.89V1505.89ZM1185.25 1505.89H1181.25L1185.25 1509.89V1505.89ZM1185.25 1292.39V1288.39L1181.25 1292.39H1185.25ZM1448.25 1292.39V1296.39L1451.8 1290.55L1448.25 1292.39ZM1333.4 1076.39V1072.39L1329.88 1078.3L1333.4 1076.39ZM1549.32 1076.39L1552.76 1074.34L1549.32 1072.39V1076.39ZM867.481 18.6426L864.045 16.5949L864.045 16.595L867.481 18.6426ZM919.023 18.6426L922.46 16.595L922.46 16.5949L919.023 18.6426ZM1433.12 881.393V885.393L1436.56 879.345L1433.12 881.393ZM1321.25 881.393L1317.65 883.128L1321.25 885.393V881.393ZM1308.25 854.395L1311.86 852.659L1311.62 852.242L1308.25 854.395ZM1307.84 853.757L1311.22 851.604L1311.21 851.602L1307.84 853.757ZM1270.51 814.385L1270.27 810.392H1270.27L1270.51 814.385ZM1238.12 857.922L1234.52 856.184V856.184L1238.12 857.922ZM1226.79 881.393V885.393L1230.4 883.131L1226.79 881.393ZM1225.48 881.393L1222.01 883.373L1225.48 885.393V881.393ZM1192.79 824.773L1189.01 826.097L1189.33 826.797L1192.79 824.773ZM1146.99 694.123L1150.77 692.8V692.8L1146.99 694.123ZM1107.29 622.63L1107.19 618.631H1107.19L1107.29 622.63ZM1074.55 683.785L1073.89 687.73L1078.38 684.941L1074.55 683.785ZM925.533 346.436L921.635 347.334L921.865 348.031L925.533 346.436ZM898.518 291.215L898.661 287.217H898.661L898.518 291.215ZM880.519 308.539L878.601 312.05L884.134 310.25L880.519 308.539ZM880.254 308.395L882.171 304.884L876.456 307.139L880.254 308.395ZM879.4 310.977L883.056 312.6L883.198 312.232L879.4 310.977ZM860.703 367.617L864.502 368.871L864.544 368.734L860.703 367.617ZM794.754 567.395L790.956 566.141L790.905 566.306L794.754 567.395ZM716.254 592.395L719.6 590.202L715.873 588.413L716.254 592.395ZM716.162 592.403L712.453 593.901L716.543 596.385L716.162 592.403ZM711.123 584.781L713.409 581.499L713.409 581.499L711.123 584.781ZM689.316 584.095L687.241 580.675L687.241 580.675L689.316 584.095ZM679.807 601.869L683.394 603.638L683.614 603.096L679.807 601.869ZM541.951 881.393V885.393L545.539 883.162L541.951 881.393ZM353.383 881.393L349.947 879.345L353.383 885.393V881.393ZM339.252 1292.39V1296.39H601.245V1292.39V1288.39H339.252V1292.39ZM601.245 1292.39H597.245V1505.89H601.245H605.245V1292.39H601.245ZM601.245 1505.89V1501.89H34.0518V1505.89V1509.89H601.245V1505.89ZM34.0518 1505.89L34.0518 1501.89C13.8773 1501.89 1.38936 1479.92 11.7165 1462.58L8.28027 1460.54L4.84407 1458.49C-8.6607 1481.15 7.66995 1509.89 34.0517 1509.89L34.0518 1505.89ZM8.28027 1460.54L11.7165 1462.58L240.622 1078.44L237.186 1076.39L233.749 1074.34L4.84408 1458.49L8.28027 1460.54ZM237.186 1076.39V1080.39H445.78V1076.39V1072.39H237.186V1076.39ZM445.78 1076.39L442.193 1074.62L335.665 1290.62L339.252 1292.39L342.839 1294.16L449.368 1078.16L445.78 1076.39ZM1778.23 1460.54L1774.79 1462.58C1785.12 1479.92 1772.63 1501.89 1752.45 1501.89V1505.89V1509.89C1778.84 1509.89 1795.17 1481.15 1781.66 1458.49L1778.23 1460.54ZM1752.45 1505.89V1501.89H1185.25V1505.89V1509.89H1752.45V1505.89ZM1185.25 1505.89H1189.25V1292.39H1185.25H1181.25V1505.89H1185.25ZM1185.25 1292.39V1296.39H1448.25V1292.39V1288.39H1185.25V1292.39ZM1448.25 1292.39L1451.8 1290.55C1451.72 1290.39 1400.81 1192.54 1336.92 1074.49L1333.4 1076.39L1329.88 1078.3C1393.74 1196.3 1444.63 1294.1 1444.7 1294.24L1448.25 1292.39ZM1333.4 1076.39V1080.39H1549.32V1076.39V1072.39H1333.4V1076.39ZM1549.32 1076.39L1545.88 1078.44L1774.79 1462.58L1778.23 1460.54L1781.66 1458.49L1552.76 1074.34L1549.32 1076.39ZM867.481 18.6426L870.918 20.6902C881.001 3.76986 905.504 3.76989 915.587 20.6902L919.023 18.6426L922.46 16.5949C909.274 -5.53165 877.231 -5.53174 864.045 16.5949L867.481 18.6426ZM919.023 18.6426L915.587 20.6902L1429.69 883.44L1433.12 881.393L1436.56 879.345L922.46 16.595L919.023 18.6426ZM1433.12 881.393V877.393H1321.25V881.393V885.393H1433.12V881.393ZM1321.25 881.393L1324.86 879.657L1311.86 852.659L1308.25 854.395L1304.65 856.13L1317.65 883.128L1321.25 881.393ZM1308.25 854.395L1311.62 852.242L1311.22 851.604L1307.84 853.757L1304.47 855.91L1304.88 856.547L1308.25 854.395ZM1307.84 853.757L1311.21 851.602C1302.75 838.359 1296.16 828.033 1290.18 821.165C1284.19 814.279 1278.02 809.929 1270.27 810.392L1270.51 814.385L1270.74 818.378C1274.71 818.141 1278.67 820.12 1284.15 826.416C1289.64 832.73 1295.86 842.44 1304.47 855.911L1307.84 853.757ZM1270.51 814.385L1270.27 810.392C1262.51 810.855 1256.91 815.908 1251.78 823.459C1246.66 830.99 1241.35 842.027 1234.52 856.184L1238.12 857.922L1241.72 859.66C1248.67 845.259 1253.69 834.877 1258.39 827.954C1263.08 821.05 1266.78 818.615 1270.74 818.378L1270.51 814.385ZM1238.12 857.922L1234.52 856.184L1223.19 879.654L1226.79 881.393L1230.4 883.131L1241.72 859.66L1238.12 857.922ZM1226.79 881.393V877.393H1225.48V881.393V885.393H1226.79V881.393ZM1225.48 881.393L1228.96 879.412C1217.79 859.817 1206.83 840.81 1196.24 822.75L1192.79 824.773L1189.33 826.797C1199.9 844.823 1210.85 863.801 1222.01 883.373L1225.48 881.393ZM1192.79 824.773L1196.56 823.45L1150.77 692.8L1146.99 694.123L1143.22 695.446L1189.01 826.097L1192.79 824.773ZM1146.99 694.123L1150.77 692.8C1142.42 668.977 1136.02 650.714 1129.86 638.493C1126.78 632.377 1123.6 627.442 1120.02 624.029C1116.33 620.519 1112.1 618.518 1107.19 618.631L1107.29 622.63L1107.38 626.629C1109.73 626.575 1112 627.44 1114.5 629.822C1117.1 632.3 1119.79 636.281 1122.72 642.094C1128.59 653.733 1134.78 671.384 1143.22 695.446L1146.99 694.123ZM1107.29 622.63L1107.19 618.631C1098.08 618.841 1092 626.038 1086.94 636.355C1081.78 646.888 1076.82 662.438 1070.73 682.629L1074.55 683.785L1078.38 684.941C1084.53 664.583 1089.3 649.709 1094.13 639.878C1099.05 629.831 1103.22 626.725 1107.38 626.629L1107.29 622.63ZM1074.55 683.785L1075.22 679.84C1074.94 679.794 1073.99 679.428 1072.32 677.81C1070.74 676.281 1068.89 673.996 1066.79 670.914C1062.6 664.762 1057.72 655.921 1052.29 644.859C1041.43 622.766 1028.6 592.335 1014.79 558.086C987.249 489.728 955.881 406.196 929.201 344.84L925.533 346.436L921.865 348.031C948.496 409.274 979.705 492.411 1007.37 561.076C1021.18 595.338 1034.11 626.007 1045.11 648.387C1050.6 659.561 1055.67 668.8 1060.18 675.42C1062.43 678.723 1064.63 681.497 1066.75 683.555C1068.78 685.525 1071.19 687.275 1073.89 687.73L1074.55 683.785ZM925.533 346.436L929.431 345.537C925.233 327.324 921.387 313.254 916.985 303.644C912.674 294.234 907.09 287.52 898.661 287.217L898.518 291.215L898.374 295.212C901.879 295.338 905.599 297.999 909.712 306.976C913.732 315.752 917.427 329.078 921.635 347.334L925.533 346.436ZM898.518 291.215L898.661 287.217C893.886 287.046 889.766 289.044 886.232 292.513C882.794 295.887 879.77 300.771 876.903 306.828L880.519 308.539L884.134 310.25C886.843 304.527 889.385 300.627 891.835 298.222C894.189 295.912 896.281 295.137 898.374 295.212L898.518 291.215ZM880.519 308.539L882.436 305.028L882.171 304.884L880.254 308.395L878.337 311.905L878.601 312.05L880.519 308.539ZM880.254 308.395L876.456 307.139L875.603 309.721L879.4 310.977L883.198 312.232L884.052 309.65L880.254 308.395ZM879.4 310.977L875.745 309.354C869.953 322.398 864.109 341.575 856.862 366.5L860.703 367.617L864.544 368.734C871.832 343.668 877.528 325.052 883.056 312.6L879.4 310.977ZM860.703 367.617L856.905 366.363L790.956 566.141L794.754 567.395L798.552 568.648L864.502 368.871L860.703 367.617ZM794.754 567.395L790.905 566.306C783.99 590.746 777.518 606.866 771.389 616.73C765.199 626.694 760.049 629.237 755.978 629.052C751.461 628.847 746.118 625.321 739.654 618.026C733.35 610.911 726.764 601.137 719.6 590.202L716.254 592.395L712.908 594.587C720.021 605.443 726.914 615.71 733.666 623.331C740.258 630.771 747.548 636.677 755.615 637.044C764.128 637.431 771.514 631.688 778.185 620.952C784.917 610.116 791.631 593.124 798.603 568.484L794.754 567.395ZM716.254 592.395L715.873 588.413L715.781 588.422L716.162 592.403L716.543 596.385L716.635 596.376L716.254 592.395ZM716.162 592.403L719.871 590.906C718.259 586.913 716.267 583.489 713.409 581.499L711.123 584.781L708.837 588.063C709.718 588.677 710.988 590.271 712.453 593.901L716.162 592.403ZM711.123 584.781L713.409 581.499C705.618 576.072 695.359 575.749 687.241 580.675L689.316 584.095L691.392 587.514C696.803 584.23 703.642 584.446 708.837 588.064L711.123 584.781ZM689.316 584.095L687.241 580.675C684.623 582.264 682.627 584.983 680.952 588.159C679.24 591.403 677.629 595.585 675.999 600.643L679.807 601.869L683.614 603.096C685.188 598.209 686.634 594.534 688.027 591.892C689.457 589.182 690.614 587.986 691.392 587.514L689.316 584.095ZM679.807 601.869L676.219 600.1L538.364 879.623L541.951 881.393L545.539 883.162L683.394 603.638L679.807 601.869ZM541.951 881.393V877.393H353.383V881.393V885.393H541.951V881.393ZM353.383 881.393L356.819 883.44L870.918 20.6902L867.481 18.6426L864.045 16.595L349.947 879.345L353.383 881.393Z" fill="black"/>
<g clip-path="url(#paint0_diamond_1403_906_clip_path)" data-figma-skip-parse="true"><g transform="matrix(1.578 -4.5211e-08 2.24877e-08 2.07191 70.7539 1018.39)"><rect x="0" y="0" width="1048.16" height="306.48" fill="url(#paint0_diamond_1403_906)" opacity="1" shape-rendering="crispEdges"/><rect x="0" y="0" width="1048.16" height="306.48" transform="scale(1 -1)" fill="url(#paint0_diamond_1403_906)" opacity="1" shape-rendering="crispEdges"/><rect x="0" y="0" width="1048.16" height="306.48" transform="scale(-1 1)" fill="url(#paint0_diamond_1403_906)" opacity="1" shape-rendering="crispEdges"/><rect x="0" y="0" width="1048.16" height="306.48" transform="scale(-1)" fill="url(#paint0_diamond_1403_906)" opacity="1" shape-rendering="crispEdges"/></g></g><path d="M531.26 1018.52L70.2539 995.395L549.815 951.978C552.966 951.692 554.542 951.55 555.933 952.144C557.325 952.739 558.311 953.977 560.283 956.452L588.69 992.112C595.066 1000.12 598.255 1004.12 601.847 1003.4C605.44 1002.67 606.834 997.751 609.622 987.904L684.464 723.568C689.573 705.521 692.128 696.498 696.786 696.618C701.444 696.737 703.532 705.88 707.709 724.165L769.788 995.942L769.788 995.942C775.008 1018.79 777.618 1030.22 782.542 1030.08C787.467 1029.94 789.417 1018.38 793.319 995.267L881.031 475.652L881.031 475.651C886.351 444.137 889.011 428.38 894.225 428.524C899.439 428.669 901.222 444.549 904.789 476.31L982.503 1168.42C985.633 1196.29 987.198 1210.23 992.297 1210.48C997.395 1210.73 1000.32 1197.01 1006.16 1169.58L1096.79 744.318C1100.58 726.497 1102.48 717.587 1107.1 717.364C1111.71 717.141 1114.46 725.826 1119.96 743.197L1198.13 990.092C1201.99 1002.28 1203.92 1008.38 1207.99 1008.67C1212.05 1008.96 1214.83 1003.2 1220.38 991.684L1259.91 909.753L1259.91 909.752C1264.05 901.185 1266.11 896.902 1269.63 896.692C1273.15 896.482 1275.71 900.489 1280.83 908.503L1305.06 946.392C1306.63 948.848 1307.41 950.076 1308.61 950.8C1309.81 951.524 1311.27 951.645 1314.17 951.887L1567.41 972.965C1620.87 977.414 1647.6 979.639 1647.59 985.178C1647.57 990.716 1620.83 992.774 1567.34 996.888L1287.5 1018.41C1284.44 1018.65 1282.91 1018.77 1281.66 1019.55C1280.41 1020.32 1279.63 1021.65 1278.08 1024.29L1198.85 1158.82C1193 1168.74 1190.08 1173.7 1186.22 1173.27C1182.35 1172.84 1180.59 1167.36 1177.08 1156.39L1121.03 981.514C1115.15 963.16 1112.21 953.983 1107.53 954.299C1102.84 954.614 1101.16 964.102 1097.79 983.077L1097.79 983.079L994.451 1565.4C989.115 1595.46 986.448 1610.49 981.271 1610.34C976.094 1610.19 974.302 1595.03 970.719 1564.71L892.157 899.923C888.279 867.109 886.34 850.702 881.098 850.614C875.857 850.525 873.363 866.857 868.377 899.52L802.559 1330.66C798.789 1355.36 796.903 1367.71 791.912 1367.87C786.921 1368.03 784.271 1355.82 778.97 1331.4L778.97 1331.4L697.319 955.261C693.303 936.762 691.295 927.513 686.627 927.354C681.958 927.195 679.327 936.287 674.065 954.47L674.065 954.471L617.613 1149.55C613.709 1163.04 611.757 1169.79 607.534 1170.04C603.31 1170.3 600.556 1163.84 595.048 1150.92L541.697 1025.8C540.266 1022.44 539.55 1020.76 538.138 1019.78C536.726 1018.79 534.904 1018.7 531.26 1018.52Z" data-figma-gradient-fill="{&#34;type&#34;:&#34;GRADIENT_DIAMOND&#34;,&#34;stops&#34;:[{&#34;color&#34;:{&#34;r&#34;:0.67450982332229614,&#34;g&#34;:0.43529412150382996,&#34;b&#34;:0.42352941632270813,&#34;a&#34;:1.0},&#34;position&#34;:0.0},{&#34;color&#34;:{&#34;r&#34;:0.92156863212585449,&#34;g&#34;:0.23921568691730499,&#34;b&#34;:0.23529411852359772,&#34;a&#34;:1.0},&#34;position&#34;:0.31730768084526062},{&#34;color&#34;:{&#34;r&#34;:0.93269228935241699,&#34;g&#34;:0.16583473980426788,&#34;b&#34;:0.16142751276493073,&#34;a&#34;:1.0},&#34;position&#34;:0.53775316476821899},{&#34;color&#34;:{&#34;r&#34;:0.92156863212585449,&#34;g&#34;:0.23921568691730499,&#34;b&#34;:0.23529411852359772,&#34;a&#34;:1.0},&#34;position&#34;:0.76442307233810425},{&#34;color&#34;:{&#34;r&#34;:0.67450982332229614,&#34;g&#34;:0.43529412150382996,&#34;b&#34;:0.42352941632270813,&#34;a&#34;:1.0},&#34;position&#34;:1.0}],&#34;stopsVar&#34;:[{&#34;color&#34;:{&#34;r&#34;:0.67450982332229614,&#34;g&#34;:0.43529412150382996,&#34;b&#34;:0.42352941632270813,&#34;a&#34;:1.0},&#34;position&#34;:0.0},{&#34;color&#34;:{&#34;r&#34;:0.92156863212585449,&#34;g&#34;:0.23921568691730499,&#34;b&#34;:0.23529411852359772,&#34;a&#34;:1.0},&#34;position&#34;:0.31730768084526062},{&#34;color&#34;:{&#34;r&#34;:0.93269228935241699,&#34;g&#34;:0.16583473980426788,&#34;b&#34;:0.16142751276493073,&#34;a&#34;:1.0},&#34;position&#34;:0.53775316476821899},{&#34;color&#34;:{&#34;r&#34;:0.92156863212585449,&#34;g&#34;:0.23921568691730499,&#34;b&#34;:0.23529411852359772,&#34;a&#34;:1.0},&#34;position&#34;:0.76442307233810425},{&#34;color&#34;:{&#34;r&#34;:0.67450982332229614,&#34;g&#34;:0.43529412150382996,&#34;b&#34;:0.42352941632270813,&#34;a&#34;:1.0},&#34;position&#34;:1.0}],&#34;transform&#34;:{&#34;m00&#34;:3156.0,&#34;m01&#34;:4.4975440687267110e-05,&#34;m02&#34;:-1507.246093750,&#34;m10&#34;:-9.0422086941543967e-05,&#34;m11&#34;:4143.822753906250,&#34;m12&#34;:-1053.5168457031250},&#34;opacity&#34;:1.0,&#34;blendMode&#34;:&#34;NORMAL&#34;,&#34;visible&#34;:true}"/>
<defs>
<clipPath id="paint0_diamond_1403_906_clip_path"><path d="M531.26 1018.52L70.2539 995.395L549.815 951.978C552.966 951.692 554.542 951.55 555.933 952.144C557.325 952.739 558.311 953.977 560.283 956.452L588.69 992.112C595.066 1000.12 598.255 1004.12 601.847 1003.4C605.44 1002.67 606.834 997.751 609.622 987.904L684.464 723.568C689.573 705.521 692.128 696.498 696.786 696.618C701.444 696.737 703.532 705.88 707.709 724.165L769.788 995.942L769.788 995.942C775.008 1018.79 777.618 1030.22 782.542 1030.08C787.467 1029.94 789.417 1018.38 793.319 995.267L881.031 475.652L881.031 475.651C886.351 444.137 889.011 428.38 894.225 428.524C899.439 428.669 901.222 444.549 904.789 476.31L982.503 1168.42C985.633 1196.29 987.198 1210.23 992.297 1210.48C997.395 1210.73 1000.32 1197.01 1006.16 1169.58L1096.79 744.318C1100.58 726.497 1102.48 717.587 1107.1 717.364C1111.71 717.141 1114.46 725.826 1119.96 743.197L1198.13 990.092C1201.99 1002.28 1203.92 1008.38 1207.99 1008.67C1212.05 1008.96 1214.83 1003.2 1220.38 991.684L1259.91 909.753L1259.91 909.752C1264.05 901.185 1266.11 896.902 1269.63 896.692C1273.15 896.482 1275.71 900.489 1280.83 908.503L1305.06 946.392C1306.63 948.848 1307.41 950.076 1308.61 950.8C1309.81 951.524 1311.27 951.645 1314.17 951.887L1567.41 972.965C1620.87 977.414 1647.6 979.639 1647.59 985.178C1647.57 990.716 1620.83 992.774 1567.34 996.888L1287.5 1018.41C1284.44 1018.65 1282.91 1018.77 1281.66 1019.55C1280.41 1020.32 1279.63 1021.65 1278.08 1024.29L1198.85 1158.82C1193 1168.74 1190.08 1173.7 1186.22 1173.27C1182.35 1172.84 1180.59 1167.36 1177.08 1156.39L1121.03 981.514C1115.15 963.16 1112.21 953.983 1107.53 954.299C1102.84 954.614 1101.16 964.102 1097.79 983.077L1097.79 983.079L994.451 1565.4C989.115 1595.46 986.448 1610.49 981.271 1610.34C976.094 1610.19 974.302 1595.03 970.719 1564.71L892.157 899.923C888.279 867.109 886.34 850.702 881.098 850.614C875.857 850.525 873.363 866.857 868.377 899.52L802.559 1330.66C798.789 1355.36 796.903 1367.71 791.912 1367.87C786.921 1368.03 784.271 1355.82 778.97 1331.4L778.97 1331.4L697.319 955.261C693.303 936.762 691.295 927.513 686.627 927.354C681.958 927.195 679.327 936.287 674.065 954.47L674.065 954.471L617.613 1149.55C613.709 1163.04 611.757 1169.79 607.534 1170.04C603.31 1170.3 600.556 1163.84 595.048 1150.92L541.697 1025.8C540.266 1022.44 539.55 1020.76 538.138 1019.78C536.726 1018.79 534.904 1018.7 531.26 1018.52Z"/></clipPath><linearGradient id="paint0_diamond_1403_906" x1="0" y1="0" x2="500" y2="500" gradientUnits="userSpaceOnUse">
<stop stop-color="#AC6F6C"/>
<stop offset="0.317308" stop-color="#EB3D3C"/>
<stop offset="0.537753" stop-color="#EE2A29"/>
<stop offset="0.764423" stop-color="#EB3D3C"/>
<stop offset="1" stop-color="#AC6F6C"/>
</linearGradient>
</defs>
</svg>
